<?xml version="1.0" encoding="UTF-8" standalone="no"?>
<!DOCTYPE svg PUBLIC "-//W3C//DTD SVG 1.1//EN"
 "http://www.w3.org/Graphics/SVG/1.1/DTD/svg11.dtd">
<!-- Generated by graphviz version 2.40.1 (20161225.0304)
 -->
<!-- Title: dependencies Pages: 1 -->
<svg width="1401pt" height="284pt"
 viewBox="0.00 0.00 1401.00 284.00" xmlns="http://www.w3.org/2000/svg" xmlns:xlink="http://www.w3.org/1999/xlink">
<g id="graph0" class="graph" transform="scale(1 1) rotate(0) translate(4 280)">
<title>dependencies</title>
<polygon fill="#ffffff" stroke="transparent" points="-4,4 -4,-280 1397,-280 1397,4 -4,4"/>
<text text-anchor="start" x="675.5091" y="-42.4" font-family="sans-serif" font-weight="bold" font-size="14.00" fill="#000000">Legend</text>
<polygon fill="#ffffb3" stroke="transparent" points="462.5,-10 462.5,-30 482.5,-30 482.5,-10 462.5,-10"/>
<text text-anchor="start" x="486.129" y="-15.4" font-family="sans-serif" font-size="14.00" fill="#000000"> &#160;Declarations</text>
<polygon fill="#8dd3c7" stroke="transparent" points="575.5,-10 575.5,-30 595.5,-30 595.5,-10 575.5,-10"/>
<text text-anchor="start" x="599.2251" y="-15.4" font-family="sans-serif" font-size="14.00" fill="#000000"> &#160;Module</text>
<polygon fill="#80b1d3" stroke="transparent" points="661.5,-10 661.5,-30 681.5,-30 681.5,-10 661.5,-10"/>
<text text-anchor="start" x="685.2812" y="-15.4" font-family="sans-serif" font-size="14.00" fill="#000000"> &#160;Bootstrap</text>
<polygon fill="#fdb462" stroke="transparent" points="758.5,-10 758.5,-30 778.5,-30 778.5,-10 758.5,-10"/>
<text text-anchor="start" x="782.1732" y="-15.4" font-family="sans-serif" font-size="14.00" fill="#000000"> &#160;Providers</text>
<polygon fill="#fb8072" stroke="transparent" points="854.5,-10 854.5,-30 874.5,-30 874.5,-10 854.5,-10"/>
<text text-anchor="start" x="878.2258" y="-15.4" font-family="sans-serif" font-size="14.00" fill="#000000"> &#160;Exports</text>
<g id="clust1" class="cluster">
<title>cluster_AuthModule</title>
<polygon fill="none" stroke="#000000" stroke-dasharray="1,5" points="8,-70 8,-268 1385,-268 1385,-70 8,-70"/>
</g>
<g id="clust2" class="cluster">
<title>cluster_AuthModule_declarations</title>
<polygon fill="none" stroke="#000000" points="830,-78 830,-130 1377,-130 1377,-78 830,-78"/>
</g>
<g id="clust7" class="cluster">
<title>cluster_AuthModule_imports</title>
<polygon fill="none" stroke="#000000" points="186,-78 186,-130 822,-130 822,-78 186,-78"/>
</g>
<g id="clust8" class="cluster">
<title>cluster_AuthModule_exports</title>
<polygon fill="none" stroke="#000000" points="694,-208 694,-260 822,-260 822,-208 694,-208"/>
</g>
<g id="clust10" class="cluster">
<title>cluster_AuthModule_providers</title>
<polygon fill="none" stroke="#000000" points="16,-78 16,-130 178,-130 178,-78 16,-78"/>
</g>
<!-- AuthComponent -->
<g id="node1" class="node">
<title>AuthComponent</title>
<polygon fill="#ffffb3" stroke="#000000" points="1368.8301,-122 1259.1699,-122 1259.1699,-86 1368.8301,-86 1368.8301,-122"/>
<text text-anchor="middle" x="1314" y="-99.8" font-family="Times,serif" font-size="14.00" fill="#000000">AuthComponent</text>
</g>
<!-- AuthModule -->
<g id="node5" class="node">
<title>AuthModule</title>
<polygon fill="#8dd3c7" stroke="#000000" points="801.5482,-187 798.5482,-191 777.5482,-191 774.5482,-187 714.4518,-187 714.4518,-151 801.5482,-151 801.5482,-187"/>
<text text-anchor="middle" x="758" y="-164.8" font-family="Times,serif" font-size="14.00" fill="#000000">AuthModule</text>
</g>
<!-- AuthComponent&#45;&gt;AuthModule -->
<g id="edge1" class="edge">
<title>AuthComponent&#45;&gt;AuthModule</title>
<path fill="none" stroke="#000000" d="M1314,-122.0109C1314,-144.4852 1314,-180 1314,-180 1314,-180 811.6284,-180 811.6284,-180"/>
<polygon fill="#000000" stroke="#000000" points="811.6284,-176.5001 801.6284,-180 811.6284,-183.5001 811.6284,-176.5001"/>
</g>
<!-- LoginComponent -->
<g id="node2" class="node">
<title>LoginComponent</title>
<polygon fill="#ffffb3" stroke="#000000" points="1241.2758,-122 1126.7242,-122 1126.7242,-86 1241.2758,-86 1241.2758,-122"/>
<text text-anchor="middle" x="1184" y="-99.8" font-family="Times,serif" font-size="14.00" fill="#000000">LoginComponent</text>
</g>
<!-- LoginComponent&#45;&gt;AuthModule -->
<g id="edge2" class="edge">
<title>LoginComponent&#45;&gt;AuthModule</title>
<path fill="none" stroke="#000000" d="M1184,-122.1289C1184,-142.5724 1184,-173 1184,-173 1184,-173 811.5875,-173 811.5875,-173"/>
<polygon fill="#000000" stroke="#000000" points="811.5875,-169.5001 801.5875,-173 811.5875,-176.5001 811.5875,-169.5001"/>
</g>
<!-- SignupComponent -->
<g id="node3" class="node">
<title>SignupComponent</title>
<polygon fill="#ffffb3" stroke="#000000" points="1108.5056,-122 987.4944,-122 987.4944,-86 1108.5056,-86 1108.5056,-122"/>
<text text-anchor="middle" x="1048" y="-99.8" font-family="Times,serif" font-size="14.00" fill="#000000">SignupComponent</text>
</g>
<!-- SignupComponent&#45;&gt;AuthModule -->
<g id="edge3" class="edge">
<title>SignupComponent&#45;&gt;AuthModule</title>
<path fill="none" stroke="#000000" d="M1048,-122.2667C1048,-140.5552 1048,-166 1048,-166 1048,-166 811.7299,-166 811.7299,-166"/>
<polygon fill="#000000" stroke="#000000" points="811.73,-162.5001 801.7299,-166 811.7299,-169.5001 811.73,-162.5001"/>
</g>
<!-- ConfirmCodeDialog -->
<g id="node4" class="node">
<title>ConfirmCodeDialog</title>
<polygon fill="#ffffb3" stroke="#000000" points="969.5926,-122 838.4074,-122 838.4074,-86 969.5926,-86 969.5926,-122"/>
<text text-anchor="middle" x="904" y="-99.8" font-family="Times,serif" font-size="14.00" fill="#000000">ConfirmCodeDialog</text>
</g>
<!-- ConfirmCodeDialog&#45;&gt;AuthModule -->
<g id="edge4" class="edge">
<title>ConfirmCodeDialog&#45;&gt;AuthModule</title>
<path fill="none" stroke="#000000" d="M904,-122.0091C904,-138.0494 904,-159 904,-159 904,-159 811.8048,-159 811.8048,-159"/>
<polygon fill="#000000" stroke="#000000" points="811.8048,-155.5001 801.8048,-159 811.8048,-162.5001 811.8048,-155.5001"/>
</g>
<!-- AuthComponent  -->
<g id="node10" class="node">
<title>AuthComponent </title>
<polygon fill="#fb8072" stroke="#000000" points="814.3297,-252 701.6703,-252 701.6703,-216 814.3297,-216 814.3297,-252"/>
<text text-anchor="middle" x="758" y="-229.8" font-family="Times,serif" font-size="14.00" fill="#000000">AuthComponent </text>
</g>
<!-- AuthModule&#45;&gt;AuthComponent  -->
<g id="edge9" class="edge">
<title>AuthModule&#45;&gt;AuthComponent </title>
<path fill="none" stroke="#000000" stroke-dasharray="5,2" d="M758,-187.1061C758,-187.1061 758,-205.991 758,-205.991"/>
<polygon fill="#000000" stroke="#000000" points="754.5001,-205.9909 758,-215.991 761.5001,-205.991 754.5001,-205.9909"/>
</g>
<!-- CommonModule -->
<g id="node6" class="node">
<title>CommonModule</title>
<polygon fill="#8dd3c7" stroke="#000000" points="813.6681,-122 810.6681,-126 789.6681,-126 786.6681,-122 702.3319,-122 702.3319,-86 813.6681,-86 813.6681,-122"/>
<text text-anchor="middle" x="758" y="-99.8" font-family="Times,serif" font-size="14.00" fill="#000000">CommonModule</text>
</g>
<!-- CommonModule&#45;&gt;AuthModule -->
<g id="edge5" class="edge">
<title>CommonModule&#45;&gt;AuthModule</title>
<path fill="none" stroke="#000000" d="M758,-122.1061C758,-122.1061 758,-140.991 758,-140.991"/>
<polygon fill="#000000" stroke="#000000" points="754.5001,-140.9909 758,-150.991 761.5001,-140.991 754.5001,-140.9909"/>
</g>
<!-- SharedComponentsModule -->
<g id="node7" class="node">
<title>SharedComponentsModule</title>
<polygon fill="#8dd3c7" stroke="#000000" points="684.6993,-122 681.6993,-126 660.6993,-126 657.6993,-122 515.3007,-122 515.3007,-86 684.6993,-86 684.6993,-122"/>
<text text-anchor="middle" x="600" y="-99.8" font-family="Times,serif" font-size="14.00" fill="#000000">SharedComponentsModule</text>
</g>
<!-- SharedComponentsModule&#45;&gt;AuthModule -->
<g id="edge6" class="edge">
<title>SharedComponentsModule&#45;&gt;AuthModule</title>
<path fill="none" stroke="#000000" d="M600,-122.0091C600,-138.0494 600,-159 600,-159 600,-159 704.4076,-159 704.4076,-159"/>
<polygon fill="#000000" stroke="#000000" points="704.4076,-162.5001 714.4076,-159 704.4075,-155.5001 704.4076,-162.5001"/>
</g>
<!-- AuthRoutingModule -->
<g id="node8" class="node">
<title>AuthRoutingModule</title>
<polygon fill="#8dd3c7" stroke="#000000" points="497.1652,-122 494.1652,-126 473.1652,-126 470.1652,-122 364.8348,-122 364.8348,-86 497.1652,-86 497.1652,-122"/>
<text text-anchor="middle" x="431" y="-99.8" font-family="Times,serif" font-size="14.00" fill="#000000">AuthRoutingModule</text>
</g>
<!-- AuthRoutingModule&#45;&gt;AuthModule -->
<g id="edge7" class="edge">
<title>AuthRoutingModule&#45;&gt;AuthModule</title>
<path fill="none" stroke="#000000" d="M431,-122.2667C431,-140.5552 431,-166 431,-166 431,-166 704.2386,-166 704.2386,-166"/>
<polygon fill="#000000" stroke="#000000" points="704.2387,-169.5001 714.2386,-166 704.2386,-162.5001 704.2387,-169.5001"/>
</g>
<!-- AmplifyAngularModule -->
<g id="node9" class="node">
<title>AmplifyAngularModule</title>
<polygon fill="#8dd3c7" stroke="#000000" points="346.3613,-122 343.3613,-126 322.3613,-126 319.3613,-122 193.6387,-122 193.6387,-86 346.3613,-86 346.3613,-122"/>
<text text-anchor="middle" x="270" y="-99.8" font-family="Times,serif" font-size="14.00" fill="#000000">AmplifyAngularModule</text>
</g>
<!-- AmplifyAngularModule&#45;&gt;AuthModule -->
<g id="edge8" class="edge">
<title>AmplifyAngularModule&#45;&gt;AuthModule</title>
<path fill="none" stroke="#000000" d="M270,-122.1289C270,-142.5724 270,-173 270,-173 270,-173 704.2638,-173 704.2638,-173"/>
<polygon fill="#000000" stroke="#000000" points="704.2638,-176.5001 714.2638,-173 704.2638,-169.5001 704.2638,-176.5001"/>
</g>
<!-- AmplifyService -->
<g id="node11" class="node">
<title>AmplifyService</title>
<ellipse fill="#fdb462" stroke="#000000" cx="97" cy="-104" rx="72.9295" ry="18"/>
<text text-anchor="middle" x="97" y="-99.8" font-family="Times,serif" font-size="14.00" fill="#000000">AmplifyService</text>
</g>
<!-- AmplifyService&#45;&gt;AuthModule -->
<g id="edge10" class="edge">
<title>AmplifyService&#45;&gt;AuthModule</title>
<path fill="none" stroke="#000000" d="M97,-122.0109C97,-144.4852 97,-180 97,-180 97,-180 704.3743,-180 704.3743,-180"/>
<polygon fill="#000000" stroke="#000000" points="704.3744,-183.5001 714.3743,-180 704.3743,-176.5001 704.3744,-183.5001"/>
</g>
</g>
</svg>
