<?xml version="1.0" encoding="UTF-8" standalone="no"?>
<!DOCTYPE svg PUBLIC "-//W3C//DTD SVG 1.1//EN"
 "http://www.w3.org/Graphics/SVG/1.1/DTD/svg11.dtd">
<!-- Generated by graphviz version 2.40.1 (20161225.0304)
 -->
<!-- Title: dependencies Pages: 1 -->
<svg width="3159pt" height="284pt"
 viewBox="0.00 0.00 3159.00 284.00" xmlns="http://www.w3.org/2000/svg" xmlns:xlink="http://www.w3.org/1999/xlink">
<g id="graph0" class="graph" transform="scale(1 1) rotate(0) translate(4 280)">
<title>dependencies</title>
<polygon fill="#ffffff" stroke="transparent" points="-4,4 -4,-280 3155,-280 3155,4 -4,4"/>
<text text-anchor="start" x="1554.5091" y="-42.4" font-family="sans-serif" font-weight="bold" font-size="14.00" fill="#000000">Legend</text>
<polygon fill="#ffffb3" stroke="transparent" points="1341.5,-10 1341.5,-30 1361.5,-30 1361.5,-10 1341.5,-10"/>
<text text-anchor="start" x="1365.129" y="-15.4" font-family="sans-serif" font-size="14.00" fill="#000000"> &#160;Declarations</text>
<polygon fill="#8dd3c7" stroke="transparent" points="1454.5,-10 1454.5,-30 1474.5,-30 1474.5,-10 1454.5,-10"/>
<text text-anchor="start" x="1478.2251" y="-15.4" font-family="sans-serif" font-size="14.00" fill="#000000"> &#160;Module</text>
<polygon fill="#80b1d3" stroke="transparent" points="1540.5,-10 1540.5,-30 1560.5,-30 1560.5,-10 1540.5,-10"/>
<text text-anchor="start" x="1564.2812" y="-15.4" font-family="sans-serif" font-size="14.00" fill="#000000"> &#160;Bootstrap</text>
<polygon fill="#fdb462" stroke="transparent" points="1637.5,-10 1637.5,-30 1657.5,-30 1657.5,-10 1637.5,-10"/>
<text text-anchor="start" x="1661.1732" y="-15.4" font-family="sans-serif" font-size="14.00" fill="#000000"> &#160;Providers</text>
<polygon fill="#fb8072" stroke="transparent" points="1733.5,-10 1733.5,-30 1753.5,-30 1753.5,-10 1733.5,-10"/>
<text text-anchor="start" x="1757.2258" y="-15.4" font-family="sans-serif" font-size="14.00" fill="#000000"> &#160;Exports</text>
<g id="clust1" class="cluster">
<title>cluster_CoreModule</title>
<polygon fill="none" stroke="#000000" stroke-dasharray="1,5" points="8,-70 8,-268 3143,-268 3143,-70 8,-70"/>
</g>
<g id="clust2" class="cluster">
<title>cluster_CoreModule_declarations</title>
<polygon fill="none" stroke="#000000" points="3051,-78 3051,-130 3135,-130 3135,-78 3051,-78"/>
</g>
<g id="clust4" class="cluster">
<title>cluster_CoreModule_imports</title>
<polygon fill="none" stroke="#000000" points="1678,-78 1678,-130 3043,-130 3043,-78 1678,-78"/>
</g>
<g id="clust5" class="cluster">
<title>cluster_CoreModule_exports</title>
<polygon fill="none" stroke="#000000" points="1959,-208 1959,-260 2179,-260 2179,-208 1959,-208"/>
</g>
<g id="clust7" class="cluster">
<title>cluster_CoreModule_providers</title>
<polygon fill="none" stroke="#000000" points="16,-78 16,-130 1670,-130 1670,-78 16,-78"/>
</g>
<!-- Md5Pipe -->
<g id="node1" class="node">
<title>Md5Pipe</title>
<polygon fill="#ffffb3" stroke="#000000" points="3126.8332,-122 3059.1668,-122 3059.1668,-86 3126.8332,-86 3126.8332,-122"/>
<text text-anchor="middle" x="3093" y="-99.8" font-family="Times,serif" font-size="14.00" fill="#000000">Md5Pipe</text>
</g>
<!-- CoreModule -->
<g id="node2" class="node">
<title>CoreModule</title>
<polygon fill="#8dd3c7" stroke="#000000" points="2100.2619,-187 2097.2619,-191 2076.2619,-191 2073.2619,-187 2013.7381,-187 2013.7381,-151 2100.2619,-151 2100.2619,-187"/>
<text text-anchor="middle" x="2057" y="-164.8" font-family="Times,serif" font-size="14.00" fill="#000000">CoreModule</text>
</g>
<!-- Md5Pipe&#45;&gt;CoreModule -->
<g id="edge1" class="edge">
<title>Md5Pipe&#45;&gt;CoreModule</title>
<path fill="none" stroke="#000000" d="M3093,-122.0908C3093,-145.1328 3093,-182 3093,-182 3093,-182 2110.5247,-182 2110.5247,-182"/>
<polygon fill="#000000" stroke="#000000" points="2110.5248,-178.5001 2100.5247,-182 2110.5247,-185.5001 2110.5248,-178.5001"/>
</g>
<!-- TranslateModule  -->
<g id="node11" class="node">
<title>TranslateModule </title>
<polygon fill="#fb8072" stroke="#000000" points="2170.6327,-252 2055.3673,-252 2055.3673,-216 2170.6327,-216 2170.6327,-252"/>
<text text-anchor="middle" x="2113" y="-229.8" font-family="Times,serif" font-size="14.00" fill="#000000">TranslateModule </text>
</g>
<!-- CoreModule&#45;&gt;TranslateModule  -->
<g id="edge10" class="edge">
<title>CoreModule&#45;&gt;TranslateModule </title>
<path fill="none" stroke="#000000" stroke-dasharray="5,2" d="M2077.9073,-187.1061C2077.9073,-187.1061 2077.9073,-205.991 2077.9073,-205.991"/>
<polygon fill="#000000" stroke="#000000" points="2074.4073,-205.9909 2077.9073,-215.991 2081.4073,-205.991 2074.4073,-205.9909"/>
</g>
<!-- Md5Pipe  -->
<g id="node12" class="node">
<title>Md5Pipe </title>
<polygon fill="#fb8072" stroke="#000000" points="2037.3326,-252 1966.6674,-252 1966.6674,-216 2037.3326,-216 2037.3326,-252"/>
<text text-anchor="middle" x="2002" y="-229.8" font-family="Times,serif" font-size="14.00" fill="#000000">Md5Pipe </text>
</g>
<!-- CoreModule&#45;&gt;Md5Pipe  -->
<g id="edge11" class="edge">
<title>CoreModule&#45;&gt;Md5Pipe </title>
<path fill="none" stroke="#000000" stroke-dasharray="5,2" d="M2025.5177,-187.1061C2025.5177,-187.1061 2025.5177,-205.991 2025.5177,-205.991"/>
<polygon fill="#000000" stroke="#000000" points="2022.0178,-205.9909 2025.5177,-215.991 2029.0178,-205.991 2022.0178,-205.9909"/>
</g>
<!-- AmplifyAngularModule -->
<g id="node3" class="node">
<title>AmplifyAngularModule</title>
<polygon fill="#8dd3c7" stroke="#000000" points="3035.3613,-122 3032.3613,-126 3011.3613,-126 3008.3613,-122 2882.6387,-122 2882.6387,-86 3035.3613,-86 3035.3613,-122"/>
<text text-anchor="middle" x="2959" y="-99.8" font-family="Times,serif" font-size="14.00" fill="#000000">AmplifyAngularModule</text>
</g>
<!-- AmplifyAngularModule&#45;&gt;CoreModule -->
<g id="edge2" class="edge">
<title>AmplifyAngularModule&#45;&gt;CoreModule</title>
<path fill="none" stroke="#000000" d="M2959,-122.0449C2959,-143.6623 2959,-177 2959,-177 2959,-177 2110.5053,-177 2110.5053,-177"/>
<polygon fill="#000000" stroke="#000000" points="2110.5054,-173.5001 2100.5053,-177 2110.5053,-180.5001 2110.5054,-173.5001"/>
</g>
<!-- CommonModule -->
<g id="node4" class="node">
<title>CommonModule</title>
<polygon fill="#8dd3c7" stroke="#000000" points="2864.6681,-122 2861.6681,-126 2840.6681,-126 2837.6681,-122 2753.3319,-122 2753.3319,-86 2864.6681,-86 2864.6681,-122"/>
<text text-anchor="middle" x="2809" y="-99.8" font-family="Times,serif" font-size="14.00" fill="#000000">CommonModule</text>
</g>
<!-- CommonModule&#45;&gt;CoreModule -->
<g id="edge3" class="edge">
<title>CommonModule&#45;&gt;CoreModule</title>
<path fill="none" stroke="#000000" d="M2809,-122.2228C2809,-142.3652 2809,-172 2809,-172 2809,-172 2110.406,-172 2110.406,-172"/>
<polygon fill="#000000" stroke="#000000" points="2110.4061,-168.5001 2100.406,-172 2110.406,-175.5001 2110.4061,-168.5001"/>
</g>
<!-- HttpClientModule -->
<g id="node5" class="node">
<title>HttpClientModule</title>
<polygon fill="#8dd3c7" stroke="#000000" points="2735.1611,-122 2732.1611,-126 2711.1611,-126 2708.1611,-122 2616.8389,-122 2616.8389,-86 2735.1611,-86 2735.1611,-122"/>
<text text-anchor="middle" x="2676" y="-99.8" font-family="Times,serif" font-size="14.00" fill="#000000">HttpClientModule</text>
</g>
<!-- HttpClientModule&#45;&gt;CoreModule -->
<g id="edge4" class="edge">
<title>HttpClientModule&#45;&gt;CoreModule</title>
<path fill="none" stroke="#000000" d="M2676,-122.2222C2676,-140.8285 2676,-167 2676,-167 2676,-167 2110.5269,-167 2110.5269,-167"/>
<polygon fill="#000000" stroke="#000000" points="2110.5269,-163.5001 2100.5269,-167 2110.5268,-170.5001 2110.5269,-163.5001"/>
</g>
<!-- StoreModule.forRoot(args) -->
<g id="node6" class="node">
<title>StoreModule.forRoot(args)</title>
<polygon fill="#8dd3c7" stroke="#000000" points="2598.2877,-122 2595.2877,-126 2574.2877,-126 2571.2877,-122 2429.7123,-122 2429.7123,-86 2598.2877,-86 2598.2877,-122"/>
<text text-anchor="middle" x="2514" y="-99.8" font-family="Times,serif" font-size="14.00" fill="#000000">StoreModule.forRoot(args)</text>
</g>
<!-- StoreModule.forRoot(args)&#45;&gt;CoreModule -->
<g id="edge5" class="edge">
<title>StoreModule.forRoot(args)&#45;&gt;CoreModule</title>
<path fill="none" stroke="#000000" d="M2514,-122.0336C2514,-139.0597 2514,-162 2514,-162 2514,-162 2110.4055,-162 2110.4055,-162"/>
<polygon fill="#000000" stroke="#000000" points="2110.4055,-158.5001 2100.4055,-162 2110.4054,-165.5001 2110.4055,-158.5001"/>
</g>
<!-- StoreRouterConnectingModule.forRoot() -->
<g id="node7" class="node">
<title>StoreRouterConnectingModule.forRoot()</title>
<polygon fill="#8dd3c7" stroke="#000000" points="2412.1172,-122 2409.1172,-126 2388.1172,-126 2385.1172,-122 2163.8828,-122 2163.8828,-86 2412.1172,-86 2412.1172,-122"/>
<text text-anchor="middle" x="2288" y="-99.8" font-family="Times,serif" font-size="14.00" fill="#000000">StoreRouterConnectingModule.forRoot()</text>
</g>
<!-- StoreRouterConnectingModule.forRoot()&#45;&gt;CoreModule -->
<g id="edge6" class="edge">
<title>StoreRouterConnectingModule.forRoot()&#45;&gt;CoreModule</title>
<path fill="none" stroke="#000000" d="M2291.3125,-122.2396C2291.3125,-137.5706 2291.3125,-157 2291.3125,-157 2291.3125,-157 2110.5232,-157 2110.5232,-157"/>
<polygon fill="#000000" stroke="#000000" points="2110.5233,-153.5001 2100.5232,-157 2110.5232,-160.5001 2110.5233,-153.5001"/>
</g>
<!-- EffectsModule.forRoot(args) -->
<g id="node8" class="node">
<title>EffectsModule.forRoot(args)</title>
<polygon fill="#8dd3c7" stroke="#000000" points="2146.3774,-122 2143.3774,-126 2122.3774,-126 2119.3774,-122 1967.6226,-122 1967.6226,-86 2146.3774,-86 2146.3774,-122"/>
<text text-anchor="middle" x="2057" y="-99.8" font-family="Times,serif" font-size="14.00" fill="#000000">EffectsModule.forRoot(args)</text>
</g>
<!-- EffectsModule.forRoot(args)&#45;&gt;CoreModule -->
<g id="edge7" class="edge">
<title>EffectsModule.forRoot(args)&#45;&gt;CoreModule</title>
<path fill="none" stroke="#000000" d="M2057,-122.1061C2057,-122.1061 2057,-140.991 2057,-140.991"/>
<polygon fill="#000000" stroke="#000000" points="2053.5001,-140.9909 2057,-150.991 2060.5001,-140.991 2053.5001,-140.9909"/>
</g>
<!-- { &#160;} -->
<g id="node9" class="node">
<title>{ &#160;}</title>
<polygon fill="#8dd3c7" stroke="#000000" points="1950,-122 1947,-126 1926,-126 1923,-122 1896,-122 1896,-86 1950,-86 1950,-122"/>
<text text-anchor="middle" x="1923" y="-99.8" font-family="Times,serif" font-size="14.00" fill="#000000">{ &#160;}</text>
</g>
<!-- { &#160;}&#45;&gt;CoreModule -->
<g id="edge8" class="edge">
<title>{ &#160;}&#45;&gt;CoreModule</title>
<path fill="none" stroke="#000000" d="M1923,-122.2396C1923,-137.5706 1923,-157 1923,-157 1923,-157 2003.494,-157 2003.494,-157"/>
<polygon fill="#000000" stroke="#000000" points="2003.4941,-160.5001 2013.494,-157 2003.494,-153.5001 2003.4941,-160.5001"/>
</g>
<!-- TranslateModule.forRoot(args) -->
<g id="node10" class="node">
<title>TranslateModule.forRoot(args)</title>
<polygon fill="#8dd3c7" stroke="#000000" points="1877.8223,-122 1874.8223,-126 1853.8223,-126 1850.8223,-122 1686.1777,-122 1686.1777,-86 1877.8223,-86 1877.8223,-122"/>
<text text-anchor="middle" x="1782" y="-99.8" font-family="Times,serif" font-size="14.00" fill="#000000">TranslateModule.forRoot(args)</text>
</g>
<!-- TranslateModule.forRoot(args)&#45;&gt;CoreModule -->
<g id="edge9" class="edge">
<title>TranslateModule.forRoot(args)&#45;&gt;CoreModule</title>
<path fill="none" stroke="#000000" d="M1782,-122.0336C1782,-139.0597 1782,-162 1782,-162 1782,-162 2003.7287,-162 2003.7287,-162"/>
<polygon fill="#000000" stroke="#000000" points="2003.7288,-165.5001 2013.7287,-162 2003.7287,-158.5001 2003.7288,-165.5001"/>
</g>
<!-- { provide: AmplifyService } -->
<g id="node13" class="node">
<title>{ provide: AmplifyService }</title>
<ellipse fill="#fdb462" stroke="#000000" cx="1541" cy="-104" rx="121.3173" ry="18"/>
<text text-anchor="middle" x="1541" y="-99.8" font-family="Times,serif" font-size="14.00" fill="#000000">{ provide: AmplifyService }</text>
</g>
<!-- { provide: AmplifyService }&#45;&gt;CoreModule -->
<g id="edge12" class="edge">
<title>{ provide: AmplifyService }&#45;&gt;CoreModule</title>
<path fill="none" stroke="#000000" d="M1541,-122.2222C1541,-140.8285 1541,-167 1541,-167 1541,-167 2003.4508,-167 2003.4508,-167"/>
<polygon fill="#000000" stroke="#000000" points="2003.4509,-170.5001 2013.4508,-167 2003.4508,-163.5001 2003.4509,-170.5001"/>
</g>
<!-- { provide: HTTP_INTERCEPTORS, useClass: HttpErrorInterceptor, multi: &#160;} -->
<g id="node14" class="node">
<title>{ provide: HTTP_INTERCEPTORS, useClass: HttpErrorInterceptor, multi: &#160;}</title>
<ellipse fill="#fdb462" stroke="#000000" cx="1088" cy="-104" rx="313.3875" ry="18"/>
<text text-anchor="middle" x="1088" y="-99.8" font-family="Times,serif" font-size="14.00" fill="#000000">{ provide: HTTP_INTERCEPTORS, useClass: HttpErrorInterceptor, multi: &#160;}</text>
</g>
<!-- { provide: HTTP_INTERCEPTORS, useClass: HttpErrorInterceptor, multi: &#160;}&#45;&gt;CoreModule -->
<g id="edge13" class="edge">
<title>{ provide: HTTP_INTERCEPTORS, useClass: HttpErrorInterceptor, multi: &#160;}&#45;&gt;CoreModule</title>
<path fill="none" stroke="#000000" d="M1088,-122.2228C1088,-142.3652 1088,-172 1088,-172 1088,-172 2003.4816,-172 2003.4816,-172"/>
<polygon fill="#000000" stroke="#000000" points="2003.4816,-175.5001 2013.4816,-172 2003.4816,-168.5001 2003.4816,-175.5001"/>
</g>
<!-- { provide: RouterStateSerializer, useClass: CustomSerializer } -->
<g id="node15" class="node">
<title>{ provide: RouterStateSerializer, useClass: CustomSerializer }</title>
<ellipse fill="#fdb462" stroke="#000000" cx="503" cy="-104" rx="253.1622" ry="18"/>
<text text-anchor="middle" x="503" y="-99.8" font-family="Times,serif" font-size="14.00" fill="#000000">{ provide: RouterStateSerializer, useClass: CustomSerializer }</text>
</g>
<!-- { provide: RouterStateSerializer, useClass: CustomSerializer }&#45;&gt;CoreModule -->
<g id="edge14" class="edge">
<title>{ provide: RouterStateSerializer, useClass: CustomSerializer }&#45;&gt;CoreModule</title>
<path fill="none" stroke="#000000" d="M503,-122.0449C503,-143.6623 503,-177 503,-177 503,-177 2003.406,-177 2003.406,-177"/>
<polygon fill="#000000" stroke="#000000" points="2003.4061,-180.5001 2013.406,-177 2003.406,-173.5001 2003.4061,-180.5001"/>
</g>
<!-- { provide: APIService } -->
<g id="node16" class="node">
<title>{ provide: APIService }</title>
<ellipse fill="#fdb462" stroke="#000000" cx="128" cy="-104" rx="104.4816" ry="18"/>
<text text-anchor="middle" x="128" y="-99.8" font-family="Times,serif" font-size="14.00" fill="#000000">{ provide: APIService }</text>
</g>
<!-- { provide: APIService }&#45;&gt;CoreModule -->
<g id="edge15" class="edge">
<title>{ provide: APIService }&#45;&gt;CoreModule</title>
<path fill="none" stroke="#000000" d="M128,-122.0908C128,-145.1328 128,-182 128,-182 128,-182 2003.5468,-182 2003.5468,-182"/>
<polygon fill="#000000" stroke="#000000" points="2003.5468,-185.5001 2013.5468,-182 2003.5467,-178.5001 2003.5468,-185.5001"/>
</g>
</g>
</svg>
