<?xml version="1.0" encoding="UTF-8" standalone="no"?>
<!DOCTYPE svg PUBLIC "-//W3C//DTD SVG 1.1//EN"
 "http://www.w3.org/Graphics/SVG/1.1/DTD/svg11.dtd">
<!-- Generated by graphviz version 2.40.1 (20161225.0304)
 -->
<!-- Title: dependencies Pages: 1 -->
<svg width="1322pt" height="211pt"
 viewBox="0.00 0.00 1322.00 211.00" xmlns="http://www.w3.org/2000/svg" xmlns:xlink="http://www.w3.org/1999/xlink">
<g id="graph0" class="graph" transform="scale(1 1) rotate(0) translate(4 207)">
<title>dependencies</title>
<polygon fill="#ffffff" stroke="transparent" points="-4,4 -4,-207 1318,-207 1318,4 -4,4"/>
<text text-anchor="start" x="636.0091" y="-42.4" font-family="sans-serif" font-weight="bold" font-size="14.00" fill="#000000">Legend</text>
<polygon fill="#ffffb3" stroke="transparent" points="423,-10 423,-30 443,-30 443,-10 423,-10"/>
<text text-anchor="start" x="446.629" y="-15.4" font-family="sans-serif" font-size="14.00" fill="#000000"> &#160;Declarations</text>
<polygon fill="#8dd3c7" stroke="transparent" points="536,-10 536,-30 556,-30 556,-10 536,-10"/>
<text text-anchor="start" x="559.7251" y="-15.4" font-family="sans-serif" font-size="14.00" fill="#000000"> &#160;Module</text>
<polygon fill="#80b1d3" stroke="transparent" points="622,-10 622,-30 642,-30 642,-10 622,-10"/>
<text text-anchor="start" x="645.7812" y="-15.4" font-family="sans-serif" font-size="14.00" fill="#000000"> &#160;Bootstrap</text>
<polygon fill="#fdb462" stroke="transparent" points="719,-10 719,-30 739,-30 739,-10 719,-10"/>
<text text-anchor="start" x="742.6732" y="-15.4" font-family="sans-serif" font-size="14.00" fill="#000000"> &#160;Providers</text>
<polygon fill="#fb8072" stroke="transparent" points="815,-10 815,-30 835,-30 835,-10 815,-10"/>
<text text-anchor="start" x="838.7258" y="-15.4" font-family="sans-serif" font-size="14.00" fill="#000000"> &#160;Exports</text>
<g id="clust1" class="cluster">
<title>cluster_TabletopModule</title>
<polygon fill="none" stroke="#000000" stroke-dasharray="1,5" points="8,-70 8,-195 1306,-195 1306,-70 8,-70"/>
</g>
<g id="clust2" class="cluster">
<title>cluster_TabletopModule_declarations</title>
<polygon fill="none" stroke="#000000" points="511,-78 511,-130 1298,-130 1298,-78 511,-78"/>
</g>
<g id="clust8" class="cluster">
<title>cluster_TabletopModule_imports</title>
<polygon fill="none" stroke="#000000" points="16,-78 16,-130 503,-130 503,-78 16,-78"/>
</g>
<!-- TabletopPageComponent -->
<g id="node1" class="node">
<title>TabletopPageComponent</title>
<polygon fill="#ffffb3" stroke="#000000" points="1290.3075,-122 1131.6925,-122 1131.6925,-86 1290.3075,-86 1290.3075,-122"/>
<text text-anchor="middle" x="1211" y="-99.8" font-family="Times,serif" font-size="14.00" fill="#000000">TabletopPageComponent</text>
</g>
<!-- TabletopModule -->
<g id="node6" class="node">
<title>TabletopModule</title>
<polygon fill="#8dd3c7" stroke="#000000" points="704.8132,-187 701.8132,-191 680.8132,-191 677.8132,-187 595.1868,-187 595.1868,-151 704.8132,-151 704.8132,-187"/>
<text text-anchor="middle" x="650" y="-164.8" font-family="Times,serif" font-size="14.00" fill="#000000">TabletopModule</text>
</g>
<!-- TabletopPageComponent&#45;&gt;TabletopModule -->
<g id="edge1" class="edge">
<title>TabletopPageComponent&#45;&gt;TabletopModule</title>
<path fill="none" stroke="#000000" d="M1211,-122.2921C1211,-144.2057 1211,-178 1211,-178 1211,-178 714.8125,-178 714.8125,-178"/>
<polygon fill="#000000" stroke="#000000" points="714.8125,-174.5001 704.8125,-178 714.8124,-181.5001 714.8125,-174.5001"/>
</g>
<!-- TileComponent -->
<g id="node2" class="node">
<title>TileComponent</title>
<polygon fill="#ffffb3" stroke="#000000" points="1113.8809,-122 1010.1191,-122 1010.1191,-86 1113.8809,-86 1113.8809,-122"/>
<text text-anchor="middle" x="1062" y="-99.8" font-family="Times,serif" font-size="14.00" fill="#000000">TileComponent</text>
</g>
<!-- TileComponent&#45;&gt;TabletopModule -->
<g id="edge2" class="edge">
<title>TileComponent&#45;&gt;TabletopModule</title>
<path fill="none" stroke="#000000" d="M1062,-122.1061C1062,-141.3391 1062,-169 1062,-169 1062,-169 714.7104,-169 714.7104,-169"/>
<polygon fill="#000000" stroke="#000000" points="714.7105,-165.5001 704.7104,-169 714.7104,-172.5001 714.7105,-165.5001"/>
</g>
<!-- TabletopToolbarComponent -->
<g id="node3" class="node">
<title>TabletopToolbarComponent</title>
<polygon fill="#ffffb3" stroke="#000000" points="991.9143,-122 816.0857,-122 816.0857,-86 991.9143,-86 991.9143,-122"/>
<text text-anchor="middle" x="904" y="-99.8" font-family="Times,serif" font-size="14.00" fill="#000000">TabletopToolbarComponent</text>
</g>
<!-- TabletopToolbarComponent&#45;&gt;TabletopModule -->
<g id="edge3" class="edge">
<title>TabletopToolbarComponent&#45;&gt;TabletopModule</title>
<path fill="none" stroke="#000000" d="M904,-122.027C904,-138.3976 904,-160 904,-160 904,-160 714.8015,-160 714.8015,-160"/>
<polygon fill="#000000" stroke="#000000" points="714.8015,-156.5001 704.8015,-160 714.8015,-163.5001 714.8015,-156.5001"/>
</g>
<!-- ActionsLogComponent -->
<g id="node4" class="node">
<title>ActionsLogComponent</title>
<polygon fill="#ffffb3" stroke="#000000" points="798.9326,-122 651.0674,-122 651.0674,-86 798.9326,-86 798.9326,-122"/>
<text text-anchor="middle" x="725" y="-99.8" font-family="Times,serif" font-size="14.00" fill="#000000">ActionsLogComponent</text>
</g>
<!-- ActionsLogComponent&#45;&gt;TabletopModule -->
<g id="edge4" class="edge">
<title>ActionsLogComponent&#45;&gt;TabletopModule</title>
<path fill="none" stroke="#000000" d="M677.9702,-122.1061C677.9702,-122.1061 677.9702,-140.991 677.9702,-140.991"/>
<polygon fill="#000000" stroke="#000000" points="674.4703,-140.9909 677.9702,-150.991 681.4703,-140.991 674.4703,-140.9909"/>
</g>
<!-- InteractionDialog -->
<g id="node5" class="node">
<title>InteractionDialog</title>
<polygon fill="#ffffb3" stroke="#000000" points="633.2395,-122 518.7605,-122 518.7605,-86 633.2395,-86 633.2395,-122"/>
<text text-anchor="middle" x="576" y="-99.8" font-family="Times,serif" font-size="14.00" fill="#000000">InteractionDialog</text>
</g>
<!-- InteractionDialog&#45;&gt;TabletopModule -->
<g id="edge5" class="edge">
<title>InteractionDialog&#45;&gt;TabletopModule</title>
<path fill="none" stroke="#000000" d="M614.3566,-122.1061C614.3566,-122.1061 614.3566,-140.991 614.3566,-140.991"/>
<polygon fill="#000000" stroke="#000000" points="610.8567,-140.9909 614.3566,-150.991 617.8567,-140.991 610.8567,-140.9909"/>
</g>
<!-- CommonModule -->
<g id="node7" class="node">
<title>CommonModule</title>
<polygon fill="#8dd3c7" stroke="#000000" points="494.6681,-122 491.6681,-126 470.6681,-126 467.6681,-122 383.3319,-122 383.3319,-86 494.6681,-86 494.6681,-122"/>
<text text-anchor="middle" x="439" y="-99.8" font-family="Times,serif" font-size="14.00" fill="#000000">CommonModule</text>
</g>
<!-- CommonModule&#45;&gt;TabletopModule -->
<g id="edge6" class="edge">
<title>CommonModule&#45;&gt;TabletopModule</title>
<path fill="none" stroke="#000000" d="M439,-122.027C439,-138.3976 439,-160 439,-160 439,-160 585.113,-160 585.113,-160"/>
<polygon fill="#000000" stroke="#000000" points="585.1131,-163.5001 595.113,-160 585.113,-156.5001 585.1131,-163.5001"/>
</g>
<!-- SharedComponentsModule -->
<g id="node8" class="node">
<title>SharedComponentsModule</title>
<polygon fill="#8dd3c7" stroke="#000000" points="365.6993,-122 362.6993,-126 341.6993,-126 338.6993,-122 196.3007,-122 196.3007,-86 365.6993,-86 365.6993,-122"/>
<text text-anchor="middle" x="281" y="-99.8" font-family="Times,serif" font-size="14.00" fill="#000000">SharedComponentsModule</text>
</g>
<!-- SharedComponentsModule&#45;&gt;TabletopModule -->
<g id="edge7" class="edge">
<title>SharedComponentsModule&#45;&gt;TabletopModule</title>
<path fill="none" stroke="#000000" d="M281,-122.1061C281,-141.3391 281,-169 281,-169 281,-169 585.1554,-169 585.1554,-169"/>
<polygon fill="#000000" stroke="#000000" points="585.1555,-172.5001 595.1554,-169 585.1554,-165.5001 585.1555,-172.5001"/>
</g>
<!-- TabletopRoutingModule -->
<g id="node9" class="node">
<title>TabletopRoutingModule</title>
<polygon fill="#8dd3c7" stroke="#000000" points="178.4312,-122 175.4312,-126 154.4312,-126 151.4312,-122 23.5688,-122 23.5688,-86 178.4312,-86 178.4312,-122"/>
<text text-anchor="middle" x="101" y="-99.8" font-family="Times,serif" font-size="14.00" fill="#000000">TabletopRoutingModule</text>
</g>
<!-- TabletopRoutingModule&#45;&gt;TabletopModule -->
<g id="edge8" class="edge">
<title>TabletopRoutingModule&#45;&gt;TabletopModule</title>
<path fill="none" stroke="#000000" d="M101,-122.2921C101,-144.2057 101,-178 101,-178 101,-178 585.0996,-178 585.0996,-178"/>
<polygon fill="#000000" stroke="#000000" points="585.0997,-181.5001 595.0996,-178 585.0996,-174.5001 585.0997,-181.5001"/>
</g>
</g>
</svg>
