<?xml version="1.0" encoding="UTF-8" standalone="no"?>
<!DOCTYPE svg PUBLIC "-//W3C//DTD SVG 1.1//EN"
 "http://www.w3.org/Graphics/SVG/1.1/DTD/svg11.dtd">
<!-- Generated by graphviz version 2.40.1 (20161225.0304)
 -->
<!-- Title: dependencies Pages: 1 -->
<svg width="1093pt" height="284pt"
 viewBox="0.00 0.00 1093.00 284.00" xmlns="http://www.w3.org/2000/svg" xmlns:xlink="http://www.w3.org/1999/xlink">
<g id="graph0" class="graph" transform="scale(1 1) rotate(0) translate(4 280)">
<title>dependencies</title>
<polygon fill="#ffffff" stroke="transparent" points="-4,4 -4,-280 1089,-280 1089,4 -4,4"/>
<text text-anchor="start" x="521.5091" y="-42.4" font-family="sans-serif" font-weight="bold" font-size="14.00" fill="#000000">Legend</text>
<polygon fill="#ffffb3" stroke="transparent" points="308.5,-10 308.5,-30 328.5,-30 328.5,-10 308.5,-10"/>
<text text-anchor="start" x="332.129" y="-15.4" font-family="sans-serif" font-size="14.00" fill="#000000"> &#160;Declarations</text>
<polygon fill="#8dd3c7" stroke="transparent" points="421.5,-10 421.5,-30 441.5,-30 441.5,-10 421.5,-10"/>
<text text-anchor="start" x="445.2251" y="-15.4" font-family="sans-serif" font-size="14.00" fill="#000000"> &#160;Module</text>
<polygon fill="#80b1d3" stroke="transparent" points="507.5,-10 507.5,-30 527.5,-30 527.5,-10 507.5,-10"/>
<text text-anchor="start" x="531.2812" y="-15.4" font-family="sans-serif" font-size="14.00" fill="#000000"> &#160;Bootstrap</text>
<polygon fill="#fdb462" stroke="transparent" points="604.5,-10 604.5,-30 624.5,-30 624.5,-10 604.5,-10"/>
<text text-anchor="start" x="628.1732" y="-15.4" font-family="sans-serif" font-size="14.00" fill="#000000"> &#160;Providers</text>
<polygon fill="#fb8072" stroke="transparent" points="700.5,-10 700.5,-30 720.5,-30 720.5,-10 700.5,-10"/>
<text text-anchor="start" x="724.2258" y="-15.4" font-family="sans-serif" font-size="14.00" fill="#000000"> &#160;Exports</text>
<g id="clust1" class="cluster">
<title>cluster_AppModule</title>
<polygon fill="none" stroke="#000000" stroke-dasharray="1,5" points="8,-70 8,-268 1077,-268 1077,-70 8,-70"/>
</g>
<g id="clust2" class="cluster">
<title>cluster_AppModule_declarations</title>
<polygon fill="none" stroke="#000000" points="947,-78 947,-130 1069,-130 1069,-78 947,-78"/>
</g>
<g id="clust4" class="cluster">
<title>cluster_AppModule_imports</title>
<polygon fill="none" stroke="#000000" points="16,-78 16,-130 939,-130 939,-78 16,-78"/>
</g>
<g id="clust6" class="cluster">
<title>cluster_AppModule_bootstrap</title>
<polygon fill="none" stroke="#000000" points="477,-208 477,-260 601,-260 601,-208 477,-208"/>
</g>
<!-- AppComponent -->
<g id="node1" class="node">
<title>AppComponent</title>
<polygon fill="#ffffb3" stroke="#000000" points="1060.9399,-122 955.0601,-122 955.0601,-86 1060.9399,-86 1060.9399,-122"/>
<text text-anchor="middle" x="1008" y="-99.8" font-family="Times,serif" font-size="14.00" fill="#000000">AppComponent</text>
</g>
<!-- AppModule -->
<g id="node2" class="node">
<title>AppModule</title>
<polygon fill="#8dd3c7" stroke="#000000" points="580.6571,-187 577.6571,-191 556.6571,-191 553.6571,-187 497.3429,-187 497.3429,-151 580.6571,-151 580.6571,-187"/>
<text text-anchor="middle" x="539" y="-164.8" font-family="Times,serif" font-size="14.00" fill="#000000">AppModule</text>
</g>
<!-- AppComponent&#45;&gt;AppModule -->
<g id="edge1" class="edge">
<title>AppComponent&#45;&gt;AppModule</title>
<path fill="none" stroke="#000000" d="M1008,-122.2921C1008,-144.2057 1008,-178 1008,-178 1008,-178 591.0334,-178 591.0334,-178"/>
<polygon fill="#000000" stroke="#000000" points="591.0334,-174.5001 581.0334,-178 591.0333,-181.5001 591.0334,-174.5001"/>
</g>
<!-- AppComponent  -->
<g id="node9" class="node">
<title>AppComponent </title>
<polygon fill="#80b1d3" stroke="#000000" points="593.439,-252 484.561,-252 484.561,-216 593.439,-216 593.439,-252"/>
<text text-anchor="middle" x="539" y="-229.8" font-family="Times,serif" font-size="14.00" fill="#000000">AppComponent </text>
</g>
<!-- AppModule&#45;&gt;AppComponent  -->
<g id="edge8" class="edge">
<title>AppModule&#45;&gt;AppComponent </title>
<path fill="none" stroke="#000000" stroke-dasharray="1,5" d="M539,-187.1061C539,-187.1061 539,-205.991 539,-205.991"/>
<polygon fill="#000000" stroke="#000000" points="535.5001,-205.9909 539,-215.991 542.5001,-205.991 535.5001,-205.9909"/>
</g>
<!-- BrowserAnimationsModule -->
<g id="node3" class="node">
<title>BrowserAnimationsModule</title>
<polygon fill="#8dd3c7" stroke="#000000" points="931.3019,-122 928.3019,-126 907.3019,-126 904.3019,-122 758.6981,-122 758.6981,-86 931.3019,-86 931.3019,-122"/>
<text text-anchor="middle" x="845" y="-99.8" font-family="Times,serif" font-size="14.00" fill="#000000">BrowserAnimationsModule</text>
</g>
<!-- BrowserAnimationsModule&#45;&gt;AppModule -->
<g id="edge2" class="edge">
<title>BrowserAnimationsModule&#45;&gt;AppModule</title>
<path fill="none" stroke="#000000" d="M845,-122.1061C845,-141.3391 845,-169 845,-169 845,-169 590.9064,-169 590.9064,-169"/>
<polygon fill="#000000" stroke="#000000" points="590.9064,-165.5001 580.9064,-169 590.9063,-172.5001 590.9064,-165.5001"/>
</g>
<!-- BrowserModule -->
<g id="node4" class="node">
<title>BrowserModule</title>
<polygon fill="#8dd3c7" stroke="#000000" points="740.4734,-122 737.4734,-126 716.4734,-126 713.4734,-122 633.5266,-122 633.5266,-86 740.4734,-86 740.4734,-122"/>
<text text-anchor="middle" x="687" y="-99.8" font-family="Times,serif" font-size="14.00" fill="#000000">BrowserModule</text>
</g>
<!-- BrowserModule&#45;&gt;AppModule -->
<g id="edge3" class="edge">
<title>BrowserModule&#45;&gt;AppModule</title>
<path fill="none" stroke="#000000" d="M687,-122.027C687,-138.3976 687,-160 687,-160 687,-160 591.015,-160 591.015,-160"/>
<polygon fill="#000000" stroke="#000000" points="591.015,-156.5001 581.015,-160 591.0149,-163.5001 591.015,-156.5001"/>
</g>
<!-- AmplifyAngularModule -->
<g id="node5" class="node">
<title>AmplifyAngularModule</title>
<polygon fill="#8dd3c7" stroke="#000000" points="615.3613,-122 612.3613,-126 591.3613,-126 588.3613,-122 462.6387,-122 462.6387,-86 615.3613,-86 615.3613,-122"/>
<text text-anchor="middle" x="539" y="-99.8" font-family="Times,serif" font-size="14.00" fill="#000000">AmplifyAngularModule</text>
</g>
<!-- AmplifyAngularModule&#45;&gt;AppModule -->
<g id="edge4" class="edge">
<title>AmplifyAngularModule&#45;&gt;AppModule</title>
<path fill="none" stroke="#000000" d="M539,-122.1061C539,-122.1061 539,-140.991 539,-140.991"/>
<polygon fill="#000000" stroke="#000000" points="535.5001,-140.9909 539,-150.991 542.5001,-140.991 535.5001,-140.9909"/>
</g>
<!-- CoreModule -->
<g id="node6" class="node">
<title>CoreModule</title>
<polygon fill="#8dd3c7" stroke="#000000" points="444.2619,-122 441.2619,-126 420.2619,-126 417.2619,-122 357.7381,-122 357.7381,-86 444.2619,-86 444.2619,-122"/>
<text text-anchor="middle" x="401" y="-99.8" font-family="Times,serif" font-size="14.00" fill="#000000">CoreModule</text>
</g>
<!-- CoreModule&#45;&gt;AppModule -->
<g id="edge5" class="edge">
<title>CoreModule&#45;&gt;AppModule</title>
<path fill="none" stroke="#000000" d="M401,-122.027C401,-138.3976 401,-160 401,-160 401,-160 487.221,-160 487.221,-160"/>
<polygon fill="#000000" stroke="#000000" points="487.221,-163.5001 497.221,-160 487.2209,-156.5001 487.221,-163.5001"/>
</g>
<!-- SharedComponentsModule -->
<g id="node7" class="node">
<title>SharedComponentsModule</title>
<polygon fill="#8dd3c7" stroke="#000000" points="339.6993,-122 336.6993,-126 315.6993,-126 312.6993,-122 170.3007,-122 170.3007,-86 339.6993,-86 339.6993,-122"/>
<text text-anchor="middle" x="255" y="-99.8" font-family="Times,serif" font-size="14.00" fill="#000000">SharedComponentsModule</text>
</g>
<!-- SharedComponentsModule&#45;&gt;AppModule -->
<g id="edge6" class="edge">
<title>SharedComponentsModule&#45;&gt;AppModule</title>
<path fill="none" stroke="#000000" d="M255,-122.1061C255,-141.3391 255,-169 255,-169 255,-169 487.0948,-169 487.0948,-169"/>
<polygon fill="#000000" stroke="#000000" points="487.0949,-172.5001 497.0948,-169 487.0948,-165.5001 487.0949,-172.5001"/>
</g>
<!-- AppRoutingModule -->
<g id="node8" class="node">
<title>AppRoutingModule</title>
<polygon fill="#8dd3c7" stroke="#000000" points="152.2744,-122 149.2744,-126 128.2744,-126 125.2744,-122 23.7256,-122 23.7256,-86 152.2744,-86 152.2744,-122"/>
<text text-anchor="middle" x="88" y="-99.8" font-family="Times,serif" font-size="14.00" fill="#000000">AppRoutingModule</text>
</g>
<!-- AppRoutingModule&#45;&gt;AppModule -->
<g id="edge7" class="edge">
<title>AppRoutingModule&#45;&gt;AppModule</title>
<path fill="none" stroke="#000000" d="M88,-122.2921C88,-144.2057 88,-178 88,-178 88,-178 486.976,-178 486.976,-178"/>
<polygon fill="#000000" stroke="#000000" points="486.976,-181.5001 496.976,-178 486.976,-174.5001 486.976,-181.5001"/>
</g>
</g>
</svg>
