<?xml version="1.0" encoding="UTF-8" standalone="no"?>
<!DOCTYPE svg PUBLIC "-//W3C//DTD SVG 1.1//EN"
 "http://www.w3.org/Graphics/SVG/1.1/DTD/svg11.dtd">
<!-- Generated by graphviz version 2.40.1 (20161225.0304)
 -->
<!-- Title: dependencies Pages: 1 -->
<svg width="757pt" height="211pt"
 viewBox="0.00 0.00 757.00 211.00" xmlns="http://www.w3.org/2000/svg" xmlns:xlink="http://www.w3.org/1999/xlink">
<g id="graph0" class="graph" transform="scale(1 1) rotate(0) translate(4 207)">
<title>dependencies</title>
<polygon fill="#ffffff" stroke="transparent" points="-4,4 -4,-207 753,-207 753,4 -4,4"/>
<text text-anchor="start" x="353.5091" y="-42.4" font-family="sans-serif" font-weight="bold" font-size="14.00" fill="#000000">Legend</text>
<polygon fill="#ffffb3" stroke="transparent" points="140.5,-10 140.5,-30 160.5,-30 160.5,-10 140.5,-10"/>
<text text-anchor="start" x="164.129" y="-15.4" font-family="sans-serif" font-size="14.00" fill="#000000"> &#160;Declarations</text>
<polygon fill="#8dd3c7" stroke="transparent" points="253.5,-10 253.5,-30 273.5,-30 273.5,-10 253.5,-10"/>
<text text-anchor="start" x="277.2251" y="-15.4" font-family="sans-serif" font-size="14.00" fill="#000000"> &#160;Module</text>
<polygon fill="#80b1d3" stroke="transparent" points="339.5,-10 339.5,-30 359.5,-30 359.5,-10 339.5,-10"/>
<text text-anchor="start" x="363.2812" y="-15.4" font-family="sans-serif" font-size="14.00" fill="#000000"> &#160;Bootstrap</text>
<polygon fill="#fdb462" stroke="transparent" points="436.5,-10 436.5,-30 456.5,-30 456.5,-10 436.5,-10"/>
<text text-anchor="start" x="460.1732" y="-15.4" font-family="sans-serif" font-size="14.00" fill="#000000"> &#160;Providers</text>
<polygon fill="#fb8072" stroke="transparent" points="532.5,-10 532.5,-30 552.5,-30 552.5,-10 532.5,-10"/>
<text text-anchor="start" x="556.2258" y="-15.4" font-family="sans-serif" font-size="14.00" fill="#000000"> &#160;Exports</text>
<g id="clust1" class="cluster">
<title>cluster_HomeModule</title>
<polygon fill="none" stroke="#000000" stroke-dasharray="1,5" points="8,-70 8,-195 741,-195 741,-70 8,-70"/>
</g>
<g id="clust2" class="cluster">
<title>cluster_HomeModule_declarations</title>
<polygon fill="none" stroke="#000000" points="601,-78 601,-130 733,-130 733,-78 601,-78"/>
</g>
<g id="clust4" class="cluster">
<title>cluster_HomeModule_imports</title>
<polygon fill="none" stroke="#000000" points="16,-78 16,-130 593,-130 593,-78 16,-78"/>
</g>
<!-- HomeComponent -->
<g id="node1" class="node">
<title>HomeComponent</title>
<polygon fill="#ffffb3" stroke="#000000" points="724.5451,-122 609.4549,-122 609.4549,-86 724.5451,-86 724.5451,-122"/>
<text text-anchor="middle" x="667" y="-99.8" font-family="Times,serif" font-size="14.00" fill="#000000">HomeComponent</text>
</g>
<!-- HomeModule -->
<g id="node2" class="node">
<title>HomeModule</title>
<polygon fill="#8dd3c7" stroke="#000000" points="417.7619,-187 414.7619,-191 393.7619,-191 390.7619,-187 324.2381,-187 324.2381,-151 417.7619,-151 417.7619,-187"/>
<text text-anchor="middle" x="371" y="-164.8" font-family="Times,serif" font-size="14.00" fill="#000000">HomeModule</text>
</g>
<!-- HomeComponent&#45;&gt;HomeModule -->
<g id="edge1" class="edge">
<title>HomeComponent&#45;&gt;HomeModule</title>
<path fill="none" stroke="#000000" d="M667,-122.2843C667,-143.3211 667,-175 667,-175 667,-175 427.9021,-175 427.9021,-175"/>
<polygon fill="#000000" stroke="#000000" points="427.9021,-171.5001 417.9021,-175 427.902,-178.5001 427.9021,-171.5001"/>
</g>
<!-- CommonModule -->
<g id="node3" class="node">
<title>CommonModule</title>
<polygon fill="#8dd3c7" stroke="#000000" points="584.6681,-122 581.6681,-126 560.6681,-126 557.6681,-122 473.3319,-122 473.3319,-86 584.6681,-86 584.6681,-122"/>
<text text-anchor="middle" x="529" y="-99.8" font-family="Times,serif" font-size="14.00" fill="#000000">CommonModule</text>
</g>
<!-- CommonModule&#45;&gt;HomeModule -->
<g id="edge2" class="edge">
<title>CommonModule&#45;&gt;HomeModule</title>
<path fill="none" stroke="#000000" d="M529,-122.0225C529,-139.3734 529,-163 529,-163 529,-163 427.9774,-163 427.9774,-163"/>
<polygon fill="#000000" stroke="#000000" points="427.9775,-159.5001 417.9774,-163 427.9774,-166.5001 427.9775,-159.5001"/>
</g>
<!-- SharedComponentsModule -->
<g id="node4" class="node">
<title>SharedComponentsModule</title>
<polygon fill="#8dd3c7" stroke="#000000" points="455.6993,-122 452.6993,-126 431.6993,-126 428.6993,-122 286.3007,-122 286.3007,-86 455.6993,-86 455.6993,-122"/>
<text text-anchor="middle" x="371" y="-99.8" font-family="Times,serif" font-size="14.00" fill="#000000">SharedComponentsModule</text>
</g>
<!-- SharedComponentsModule&#45;&gt;HomeModule -->
<g id="edge3" class="edge">
<title>SharedComponentsModule&#45;&gt;HomeModule</title>
<path fill="none" stroke="#000000" d="M371,-122.1061C371,-122.1061 371,-140.991 371,-140.991"/>
<polygon fill="#000000" stroke="#000000" points="367.5001,-140.9909 371,-150.991 374.5001,-140.991 367.5001,-140.9909"/>
</g>
<!-- HomeRoutingModule -->
<g id="node5" class="node">
<title>HomeRoutingModule</title>
<polygon fill="#8dd3c7" stroke="#000000" points="268.3795,-122 265.3795,-126 244.3795,-126 241.3795,-122 129.6205,-122 129.6205,-86 268.3795,-86 268.3795,-122"/>
<text text-anchor="middle" x="199" y="-99.8" font-family="Times,serif" font-size="14.00" fill="#000000">HomeRoutingModule</text>
</g>
<!-- HomeRoutingModule&#45;&gt;HomeModule -->
<g id="edge4" class="edge">
<title>HomeRoutingModule&#45;&gt;HomeModule</title>
<path fill="none" stroke="#000000" d="M199,-122.0225C199,-139.3734 199,-163 199,-163 199,-163 314.0002,-163 314.0002,-163"/>
<polygon fill="#000000" stroke="#000000" points="314.0003,-166.5001 324.0002,-163 314.0002,-159.5001 314.0003,-166.5001"/>
</g>
<!-- AuthModule -->
<g id="node6" class="node">
<title>AuthModule</title>
<polygon fill="#8dd3c7" stroke="#000000" points="111.5482,-122 108.5482,-126 87.5482,-126 84.5482,-122 24.4518,-122 24.4518,-86 111.5482,-86 111.5482,-122"/>
<text text-anchor="middle" x="68" y="-99.8" font-family="Times,serif" font-size="14.00" fill="#000000">AuthModule</text>
</g>
<!-- AuthModule&#45;&gt;HomeModule -->
<g id="edge5" class="edge">
<title>AuthModule&#45;&gt;HomeModule</title>
<path fill="none" stroke="#000000" d="M68,-122.2843C68,-143.3211 68,-175 68,-175 68,-175 313.9887,-175 313.9887,-175"/>
<polygon fill="#000000" stroke="#000000" points="313.9887,-178.5001 323.9887,-175 313.9887,-171.5001 313.9887,-178.5001"/>
</g>
</g>
</svg>
