<?xml version="1.0" encoding="UTF-8" standalone="no"?>
<!DOCTYPE svg PUBLIC "-//W3C//DTD SVG 1.1//EN"
 "http://www.w3.org/Graphics/SVG/1.1/DTD/svg11.dtd">
<!-- Generated by graphviz version 2.40.1 (20161225.0304)
 -->
<!-- Title: dependencies Pages: 1 -->
<svg width="1403pt" height="211pt"
 viewBox="0.00 0.00 1403.00 211.00" xmlns="http://www.w3.org/2000/svg" xmlns:xlink="http://www.w3.org/1999/xlink">
<g id="graph0" class="graph" transform="scale(1 1) rotate(0) translate(4 207)">
<title>dependencies</title>
<polygon fill="#ffffff" stroke="transparent" points="-4,4 -4,-207 1399,-207 1399,4 -4,4"/>
<text text-anchor="start" x="676.5091" y="-42.4" font-family="sans-serif" font-weight="bold" font-size="14.00" fill="#000000">Legend</text>
<polygon fill="#ffffb3" stroke="transparent" points="463.5,-10 463.5,-30 483.5,-30 483.5,-10 463.5,-10"/>
<text text-anchor="start" x="487.129" y="-15.4" font-family="sans-serif" font-size="14.00" fill="#000000"> &#160;Declarations</text>
<polygon fill="#8dd3c7" stroke="transparent" points="576.5,-10 576.5,-30 596.5,-30 596.5,-10 576.5,-10"/>
<text text-anchor="start" x="600.2251" y="-15.4" font-family="sans-serif" font-size="14.00" fill="#000000"> &#160;Module</text>
<polygon fill="#80b1d3" stroke="transparent" points="662.5,-10 662.5,-30 682.5,-30 682.5,-10 662.5,-10"/>
<text text-anchor="start" x="686.2812" y="-15.4" font-family="sans-serif" font-size="14.00" fill="#000000"> &#160;Bootstrap</text>
<polygon fill="#fdb462" stroke="transparent" points="759.5,-10 759.5,-30 779.5,-30 779.5,-10 759.5,-10"/>
<text text-anchor="start" x="783.1732" y="-15.4" font-family="sans-serif" font-size="14.00" fill="#000000"> &#160;Providers</text>
<polygon fill="#fb8072" stroke="transparent" points="855.5,-10 855.5,-30 875.5,-30 875.5,-10 855.5,-10"/>
<text text-anchor="start" x="879.2258" y="-15.4" font-family="sans-serif" font-size="14.00" fill="#000000"> &#160;Exports</text>
<g id="clust1" class="cluster">
<title>cluster_CharactersModule</title>
<polygon fill="none" stroke="#000000" stroke-dasharray="1,5" points="8,-70 8,-195 1387,-195 1387,-70 8,-70"/>
</g>
<g id="clust2" class="cluster">
<title>cluster_CharactersModule_declarations</title>
<polygon fill="none" stroke="#000000" points="521,-78 521,-130 1379,-130 1379,-78 521,-78"/>
</g>
<g id="clust8" class="cluster">
<title>cluster_CharactersModule_imports</title>
<polygon fill="none" stroke="#000000" points="16,-78 16,-130 513,-130 513,-78 16,-78"/>
</g>
<!-- CharactersComponent -->
<g id="node1" class="node">
<title>CharactersComponent</title>
<polygon fill="#ffffb3" stroke="#000000" points="1370.6839,-122 1229.3161,-122 1229.3161,-86 1370.6839,-86 1370.6839,-122"/>
<text text-anchor="middle" x="1300" y="-99.8" font-family="Times,serif" font-size="14.00" fill="#000000">CharactersComponent</text>
</g>
<!-- CharactersModule -->
<g id="node6" class="node">
<title>CharactersModule</title>
<polygon fill="#8dd3c7" stroke="#000000" points="740.9019,-187 737.9019,-191 716.9019,-191 713.9019,-187 621.0981,-187 621.0981,-151 740.9019,-151 740.9019,-187"/>
<text text-anchor="middle" x="681" y="-164.8" font-family="Times,serif" font-size="14.00" fill="#000000">CharactersModule</text>
</g>
<!-- CharactersComponent&#45;&gt;CharactersModule -->
<g id="edge1" class="edge">
<title>CharactersComponent&#45;&gt;CharactersModule</title>
<path fill="none" stroke="#000000" d="M1300,-122.2921C1300,-144.2057 1300,-178 1300,-178 1300,-178 750.9148,-178 750.9148,-178"/>
<polygon fill="#000000" stroke="#000000" points="750.9148,-174.5001 740.9148,-178 750.9147,-181.5001 750.9148,-174.5001"/>
</g>
<!-- NewCharacterComponent -->
<g id="node2" class="node">
<title>NewCharacterComponent</title>
<polygon fill="#ffffb3" stroke="#000000" points="1211.1671,-122 1048.8329,-122 1048.8329,-86 1211.1671,-86 1211.1671,-122"/>
<text text-anchor="middle" x="1130" y="-99.8" font-family="Times,serif" font-size="14.00" fill="#000000">NewCharacterComponent</text>
</g>
<!-- NewCharacterComponent&#45;&gt;CharactersModule -->
<g id="edge2" class="edge">
<title>NewCharacterComponent&#45;&gt;CharactersModule</title>
<path fill="none" stroke="#000000" d="M1130,-122.1061C1130,-141.3391 1130,-169 1130,-169 1130,-169 751.0882,-169 751.0882,-169"/>
<polygon fill="#000000" stroke="#000000" points="751.0883,-165.5001 741.0882,-169 751.0882,-172.5001 751.0883,-165.5001"/>
</g>
<!-- CharactersPageComponent -->
<g id="node3" class="node">
<title>CharactersPageComponent</title>
<polygon fill="#ffffb3" stroke="#000000" points="1031.3961,-122 862.6039,-122 862.6039,-86 1031.3961,-86 1031.3961,-122"/>
<text text-anchor="middle" x="947" y="-99.8" font-family="Times,serif" font-size="14.00" fill="#000000">CharactersPageComponent</text>
</g>
<!-- CharactersPageComponent&#45;&gt;CharactersModule -->
<g id="edge3" class="edge">
<title>CharactersPageComponent&#45;&gt;CharactersModule</title>
<path fill="none" stroke="#000000" d="M947,-122.027C947,-138.3976 947,-160 947,-160 947,-160 751.0273,-160 751.0273,-160"/>
<polygon fill="#000000" stroke="#000000" points="751.0273,-156.5001 741.0273,-160 751.0272,-163.5001 751.0273,-156.5001"/>
</g>
<!-- EditCharacterComponent -->
<g id="node4" class="node">
<title>EditCharacterComponent</title>
<polygon fill="#ffffb3" stroke="#000000" points="844.573,-122 685.427,-122 685.427,-86 844.573,-86 844.573,-122"/>
<text text-anchor="middle" x="765" y="-99.8" font-family="Times,serif" font-size="14.00" fill="#000000">EditCharacterComponent</text>
</g>
<!-- EditCharacterComponent&#45;&gt;CharactersModule -->
<g id="edge4" class="edge">
<title>EditCharacterComponent&#45;&gt;CharactersModule</title>
<path fill="none" stroke="#000000" d="M713.0821,-122.1061C713.0821,-122.1061 713.0821,-140.991 713.0821,-140.991"/>
<polygon fill="#000000" stroke="#000000" points="709.5821,-140.9909 713.0821,-150.991 716.5821,-140.991 709.5821,-140.9909"/>
</g>
<!-- ChangePortraitDialog -->
<g id="node5" class="node">
<title>ChangePortraitDialog</title>
<polygon fill="#ffffb3" stroke="#000000" points="667.3585,-122 528.6415,-122 528.6415,-86 667.3585,-86 667.3585,-122"/>
<text text-anchor="middle" x="598" y="-99.8" font-family="Times,serif" font-size="14.00" fill="#000000">ChangePortraitDialog</text>
</g>
<!-- ChangePortraitDialog&#45;&gt;CharactersModule -->
<g id="edge5" class="edge">
<title>ChangePortraitDialog&#45;&gt;CharactersModule</title>
<path fill="none" stroke="#000000" d="M644.3643,-122.1061C644.3643,-122.1061 644.3643,-140.991 644.3643,-140.991"/>
<polygon fill="#000000" stroke="#000000" points="640.8644,-140.9909 644.3643,-150.991 647.8644,-140.991 640.8644,-140.9909"/>
</g>
<!-- CommonModule -->
<g id="node7" class="node">
<title>CommonModule</title>
<polygon fill="#8dd3c7" stroke="#000000" points="504.6681,-122 501.6681,-126 480.6681,-126 477.6681,-122 393.3319,-122 393.3319,-86 504.6681,-86 504.6681,-122"/>
<text text-anchor="middle" x="449" y="-99.8" font-family="Times,serif" font-size="14.00" fill="#000000">CommonModule</text>
</g>
<!-- CommonModule&#45;&gt;CharactersModule -->
<g id="edge6" class="edge">
<title>CommonModule&#45;&gt;CharactersModule</title>
<path fill="none" stroke="#000000" d="M449,-122.027C449,-138.3976 449,-160 449,-160 449,-160 611.2542,-160 611.2542,-160"/>
<polygon fill="#000000" stroke="#000000" points="611.2543,-163.5001 621.2542,-160 611.2542,-156.5001 611.2543,-163.5001"/>
</g>
<!-- SharedComponentsModule -->
<g id="node8" class="node">
<title>SharedComponentsModule</title>
<polygon fill="#8dd3c7" stroke="#000000" points="375.6993,-122 372.6993,-126 351.6993,-126 348.6993,-122 206.3007,-122 206.3007,-86 375.6993,-86 375.6993,-122"/>
<text text-anchor="middle" x="291" y="-99.8" font-family="Times,serif" font-size="14.00" fill="#000000">SharedComponentsModule</text>
</g>
<!-- SharedComponentsModule&#45;&gt;CharactersModule -->
<g id="edge7" class="edge">
<title>SharedComponentsModule&#45;&gt;CharactersModule</title>
<path fill="none" stroke="#000000" d="M291,-122.1061C291,-141.3391 291,-169 291,-169 291,-169 610.9172,-169 610.9172,-169"/>
<polygon fill="#000000" stroke="#000000" points="610.9172,-172.5001 620.9172,-169 610.9172,-165.5001 610.9172,-172.5001"/>
</g>
<!-- CharactersRoutingModule -->
<g id="node9" class="node">
<title>CharactersRoutingModule</title>
<polygon fill="#8dd3c7" stroke="#000000" points="188.0197,-122 185.0197,-126 164.0197,-126 161.0197,-122 23.9803,-122 23.9803,-86 188.0197,-86 188.0197,-122"/>
<text text-anchor="middle" x="106" y="-99.8" font-family="Times,serif" font-size="14.00" fill="#000000">CharactersRoutingModule</text>
</g>
<!-- CharactersRoutingModule&#45;&gt;CharactersModule -->
<g id="edge8" class="edge">
<title>CharactersRoutingModule&#45;&gt;CharactersModule</title>
<path fill="none" stroke="#000000" d="M106,-122.2921C106,-144.2057 106,-178 106,-178 106,-178 611.0921,-178 611.0921,-178"/>
<polygon fill="#000000" stroke="#000000" points="611.0922,-181.5001 621.0921,-178 611.0921,-174.5001 611.0922,-181.5001"/>
</g>
</g>
</svg>
